<?xml version="1.0" encoding="UTF-8"?> <svg xmlns="http://www.w3.org/2000/svg" width="223" height="63" viewBox="0 0 223 63" fill="none"> <path d="M77.352 45.9206C76.904 45.9206 76.4907 45.8486 76.112 45.7046C75.7333 45.5606 75.4027 45.3579 75.12 45.0966C74.8427 44.8299 74.6267 44.5206 74.472 44.1686C74.3173 43.8166 74.24 43.4299 74.24 43.0086C74.24 42.5873 74.3173 42.2006 74.472 41.8486C74.6267 41.4966 74.8427 41.1899 75.12 40.9286C75.4027 40.6619 75.7333 40.4566 76.112 40.3126C76.4907 40.1686 76.904 40.0966 77.352 40.0966C77.8053 40.0966 78.2187 40.1686 78.592 40.3126C78.9707 40.4566 79.2987 40.6619 79.576 40.9286C79.8533 41.1899 80.0693 41.4966 80.224 41.8486C80.384 42.2006 80.464 42.5873 80.464 43.0086C80.464 43.4299 80.384 43.8193 80.224 44.1766C80.0693 44.5286 79.8533 44.8353 79.576 45.0966C79.2987 45.3579 78.9707 45.5606 78.592 45.7046C78.2187 45.8486 77.8053 45.9206 77.352 45.9206ZM77.352 44.6086C77.5653 44.6086 77.7627 44.5713 77.944 44.4966C78.1307 44.4219 78.2907 44.3153 78.424 44.1766C78.5627 44.0326 78.6693 43.8619 78.744 43.6646C78.824 43.4673 78.864 43.2486 78.864 43.0086C78.864 42.7633 78.824 42.5446 78.744 42.3526C78.6693 42.1553 78.5627 41.9873 78.424 41.8486C78.2907 41.7046 78.1307 41.5953 77.944 41.5206C77.7627 41.4459 77.5653 41.4086 77.352 41.4086C77.1387 41.4086 76.9387 41.4459 76.752 41.5206C76.5707 41.5953 76.4107 41.7046 76.272 41.8486C76.1387 41.9873 76.032 42.1553 75.952 42.3526C75.8773 42.5446 75.84 42.7633 75.84 43.0086C75.84 43.2486 75.8773 43.4673 75.952 43.6646C76.032 43.8619 76.1387 44.0326 76.272 44.1766C76.4107 44.3153 76.5707 44.4219 76.752 44.4966C76.9387 44.5713 77.1387 44.6086 77.352 44.6086ZM88.9989 45.9206C88.5563 45.9206 88.1456 45.8513 87.7669 45.7126C87.3936 45.5686 87.0683 45.3659 86.7909 45.1046C86.5189 44.8433 86.3056 44.5366 86.1509 44.1846C85.9963 43.8273 85.9189 43.4353 85.9189 43.0086C85.9189 42.5819 85.9963 42.1926 86.1509 41.8406C86.3056 41.4833 86.5189 41.1739 86.7909 40.9126C87.0683 40.6513 87.3936 40.4513 87.7669 40.3126C88.1456 40.1686 88.5563 40.0966 88.9989 40.0966C89.5163 40.0966 89.9776 40.1873 90.3829 40.3686C90.7936 40.5499 91.1349 40.8113 91.4069 41.1526L90.3989 42.0646C90.2176 41.8513 90.0176 41.6886 89.7989 41.5766C89.5856 41.4646 89.3456 41.4086 89.0789 41.4086C88.8496 41.4086 88.6389 41.4459 88.4469 41.5206C88.2549 41.5953 88.0896 41.7046 87.9509 41.8486C87.8176 41.9873 87.7109 42.1553 87.6309 42.3526C87.5563 42.5499 87.5189 42.7686 87.5189 43.0086C87.5189 43.2486 87.5563 43.4673 87.6309 43.6646C87.7109 43.8619 87.8176 44.0326 87.9509 44.1766C88.0896 44.3153 88.2549 44.4219 88.4469 44.4966C88.6389 44.5713 88.8496 44.6086 89.0789 44.6086C89.3456 44.6086 89.5856 44.5526 89.7989 44.4406C90.0176 44.3286 90.2176 44.1659 90.3989 43.9526L91.4069 44.8646C91.1349 45.2006 90.7936 45.4619 90.3829 45.6486C89.9776 45.8299 89.5163 45.9206 88.9989 45.9206ZM97.0825 45.8086V40.2086H99.8025C100.475 40.2086 100.995 40.3366 101.363 40.5926C101.736 40.8433 101.923 41.2006 101.923 41.6646C101.923 42.1179 101.749 42.4753 101.403 42.7366C101.056 42.9926 100.592 43.1206 100.011 43.1206L100.171 42.7446C100.8 42.7446 101.291 42.8699 101.643 43.1206C102 43.3659 102.179 43.7286 102.179 44.2086C102.179 44.6993 101.987 45.0886 101.603 45.3766C101.224 45.6646 100.675 45.8086 99.9545 45.8086H97.0825ZM98.6425 44.6726H99.8905C100.12 44.6726 100.291 44.6246 100.403 44.5286C100.52 44.4273 100.579 44.2806 100.579 44.0886C100.579 43.8966 100.52 43.7553 100.403 43.6646C100.291 43.5686 100.12 43.5206 99.8905 43.5206H98.6425V44.6726ZM98.6425 42.4486H99.6505C99.8745 42.4486 100.043 42.4033 100.155 42.3126C100.267 42.2166 100.323 42.0779 100.323 41.8966C100.323 41.7153 100.267 41.5793 100.155 41.4886C100.043 41.3926 99.8745 41.3446 99.6505 41.3446H98.6425V42.4486ZM110.748 45.9206C110.3 45.9206 109.886 45.8486 109.508 45.7046C109.129 45.5606 108.798 45.3579 108.516 45.0966C108.238 44.8299 108.022 44.5206 107.868 44.1686C107.713 43.8166 107.636 43.4299 107.636 43.0086C107.636 42.5873 107.713 42.2006 107.868 41.8486C108.022 41.4966 108.238 41.1899 108.516 40.9286C108.798 40.6619 109.129 40.4566 109.508 40.3126C109.886 40.1686 110.3 40.0966 110.748 40.0966C111.201 40.0966 111.614 40.1686 111.988 40.3126C112.366 40.4566 112.694 40.6619 112.972 40.9286C113.249 41.1899 113.465 41.4966 113.62 41.8486C113.78 42.2006 113.86 42.5873 113.86 43.0086C113.86 43.4299 113.78 43.8193 113.62 44.1766C113.465 44.5286 113.249 44.8353 112.972 45.0966C112.694 45.3579 112.366 45.5606 111.988 45.7046C111.614 45.8486 111.201 45.9206 110.748 45.9206ZM110.748 44.6086C110.961 44.6086 111.158 44.5713 111.34 44.4966C111.526 44.4219 111.686 44.3153 111.82 44.1766C111.958 44.0326 112.065 43.8619 112.14 43.6646C112.22 43.4673 112.26 43.2486 112.26 43.0086C112.26 42.7633 112.22 42.5446 112.14 42.3526C112.065 42.1553 111.958 41.9873 111.82 41.8486C111.686 41.7046 111.526 41.5953 111.34 41.5206C111.158 41.4459 110.961 41.4086 110.748 41.4086C110.534 41.4086 110.334 41.4459 110.148 41.5206C109.966 41.5953 109.806 41.7046 109.668 41.8486C109.534 41.9873 109.428 42.1553 109.348 42.3526C109.273 42.5446 109.236 42.7633 109.236 43.0086C109.236 43.2486 109.273 43.4673 109.348 43.6646C109.428 43.8619 109.534 44.0326 109.668 44.1766C109.806 44.3153 109.966 44.4219 110.148 44.4966C110.334 44.5713 110.534 44.6086 110.748 44.6086ZM119.667 45.8086V40.2086H124.347V41.4326H121.227V42.3366H122.675C123.357 42.3366 123.877 42.4806 124.235 42.7686C124.597 43.0566 124.779 43.4726 124.779 44.0166C124.779 44.5766 124.576 45.0166 124.171 45.3366C123.765 45.6513 123.197 45.8086 122.467 45.8086H119.667ZM121.227 44.6726H122.363C122.624 44.6726 122.824 44.6193 122.963 44.5126C123.107 44.4059 123.179 44.2539 123.179 44.0566C123.179 43.6619 122.907 43.4646 122.363 43.4646H121.227V44.6726ZM133.308 45.9206C132.86 45.9206 132.447 45.8486 132.068 45.7046C131.69 45.5606 131.359 45.3579 131.076 45.0966C130.799 44.8299 130.583 44.5206 130.428 44.1686C130.274 43.8166 130.196 43.4299 130.196 43.0086C130.196 42.5873 130.274 42.2006 130.428 41.8486C130.583 41.4966 130.799 41.1899 131.076 40.9286C131.359 40.6619 131.69 40.4566 132.068 40.3126C132.447 40.1686 132.86 40.0966 133.308 40.0966C133.762 40.0966 134.175 40.1686 134.548 40.3126C134.927 40.4566 135.255 40.6619 135.532 40.9286C135.81 41.1899 136.026 41.4966 136.18 41.8486C136.34 42.2006 136.42 42.5873 136.42 43.0086C136.42 43.4299 136.34 43.8193 136.18 44.1766C136.026 44.5286 135.81 44.8353 135.532 45.0966C135.255 45.3579 134.927 45.5606 134.548 45.7046C134.175 45.8486 133.762 45.9206 133.308 45.9206ZM133.308 44.6086C133.522 44.6086 133.719 44.5713 133.9 44.4966C134.087 44.4219 134.247 44.3153 134.38 44.1766C134.519 44.0326 134.626 43.8619 134.7 43.6646C134.78 43.4673 134.82 43.2486 134.82 43.0086C134.82 42.7633 134.78 42.5446 134.7 42.3526C134.626 42.1553 134.519 41.9873 134.38 41.8486C134.247 41.7046 134.087 41.5953 133.9 41.5206C133.719 41.4459 133.522 41.4086 133.308 41.4086C133.095 41.4086 132.895 41.4459 132.708 41.5206C132.527 41.5953 132.367 41.7046 132.228 41.8486C132.095 41.9873 131.988 42.1553 131.908 42.3526C131.834 42.5446 131.796 42.7633 131.796 43.0086C131.796 43.2486 131.834 43.4673 131.908 43.6646C131.988 43.8619 132.095 44.0326 132.228 44.1766C132.367 44.3153 132.527 44.4219 132.708 44.4966C132.895 44.5713 133.095 44.6086 133.308 44.6086ZM145.767 45.1206V41.4646H144.159L144.135 42.0726C144.124 42.3979 144.103 42.7019 144.071 42.9846C144.044 43.2673 144.004 43.5259 143.951 43.7606C143.903 43.9953 143.836 44.1979 143.751 44.3686C143.671 44.5339 143.572 44.6619 143.455 44.7526L141.767 44.5526C141.954 44.5579 142.106 44.4966 142.223 44.3686C142.346 44.2353 142.442 44.0513 142.511 43.8166C142.586 43.5819 142.639 43.3046 142.671 42.9846C142.708 42.6646 142.735 42.3153 142.751 41.9366L142.815 40.2086H147.327V45.1206H145.767ZM141.599 46.9366V44.5526H148.087V46.9366H146.639V45.8086H143.055V46.9366H141.599ZM153.804 45.8086V40.2086H155.364V43.4966L157.676 40.2086H159.164V45.8086H157.604V42.5286L155.3 45.8086H153.804ZM172.615 45.8086V40.2086H175.335C176.007 40.2086 176.527 40.3366 176.895 40.5926C177.268 40.8433 177.455 41.2006 177.455 41.6646C177.455 42.1179 177.282 42.4753 176.935 42.7366C176.588 42.9926 176.124 43.1206 175.543 43.1206L175.703 42.7446C176.332 42.7446 176.823 42.8699 177.175 43.1206C177.532 43.3659 177.711 43.7286 177.711 44.2086C177.711 44.6993 177.519 45.0886 177.135 45.3766C176.756 45.6646 176.207 45.8086 175.487 45.8086H172.615ZM174.175 44.6726H175.423C175.652 44.6726 175.823 44.6246 175.935 44.5286C176.052 44.4273 176.111 44.2806 176.111 44.0886C176.111 43.8966 176.052 43.7553 175.935 43.6646C175.823 43.5686 175.652 43.5206 175.423 43.5206H174.175V44.6726ZM174.175 42.4486H175.183C175.407 42.4486 175.575 42.4033 175.687 42.3126C175.799 42.2166 175.855 42.0779 175.855 41.8966C175.855 41.7153 175.799 41.5793 175.687 41.4886C175.575 41.3926 175.407 41.3446 175.183 41.3446H174.175V42.4486ZM183.528 45.8086V40.2086H186.088C186.6 40.2086 187.04 40.2913 187.408 40.4566C187.781 40.6219 188.069 40.8619 188.272 41.1766C188.475 41.4859 188.576 41.8539 188.576 42.2806C188.576 42.7019 188.475 43.0673 188.272 43.3766C188.069 43.6859 187.781 43.9259 187.408 44.0966C187.04 44.2619 186.6 44.3446 186.088 44.3446H184.408L185.112 43.6566V45.8086H183.528ZM185.112 43.8246L184.408 43.0966H185.992C186.323 43.0966 186.568 43.0246 186.728 42.8806C186.893 42.7366 186.976 42.5366 186.976 42.2806C186.976 42.0193 186.893 41.8166 186.728 41.6726C186.568 41.5286 186.323 41.4566 185.992 41.4566H184.408L185.112 40.7286V43.8246ZM195.71 42.3766H198.31V43.5606H195.71V42.3766ZM195.822 44.5846H198.75V45.8086H194.254V40.2086H198.646V41.4326H195.822V44.5846ZM204.612 45.8086V40.2086H205.916L208.228 44.0166H207.54L209.804 40.2086H211.108L211.124 45.8086H209.66L209.652 42.4246H209.9L208.212 45.2566H207.508L205.772 42.4246H206.068V45.8086H204.612ZM220.403 45.8086V44.0726L220.779 44.4006H219.363C218.862 44.4006 218.43 44.3179 218.067 44.1526C217.705 43.9873 217.425 43.7499 217.227 43.4406C217.035 43.1313 216.939 42.7633 216.939 42.3366C216.939 41.8939 217.041 41.5153 217.243 41.2006C217.451 40.8806 217.742 40.6353 218.115 40.4646C218.494 40.2939 218.937 40.2086 219.443 40.2086H221.963V45.8086H220.403ZM216.955 45.8086L218.355 43.7846H219.947L218.619 45.8086H216.955ZM220.403 43.5686V41.0646L220.779 41.4566H219.475C219.166 41.4566 218.931 41.5286 218.771 41.6726C218.617 41.8113 218.539 42.0246 218.539 42.3126C218.539 42.5953 218.617 42.8113 218.771 42.9606C218.931 43.1046 219.161 43.1766 219.459 43.1766H220.779L220.403 43.5686Z" fill="white"></path> <path fill-rule="evenodd" clip-rule="evenodd" d="M52.8931 14.5305C45.2632 3.73855 30.8996 2.33655 22.9496 5.37489C16.3939 7.88018 11.5479 12.4311 11.5479 12.4311C16.0844 11.5109 16.4995 14.1677 16.9567 14.969C19.9026 12.8187 27.5958 8.3455 35.1737 8.34047C42.5102 8.33578 47.377 9.49808 52.8931 14.5305ZM38.5097 12.3105C33.2514 13.3333 29.2304 16.8289 29.2304 16.8289C29.2304 16.8289 28.6632 15.4809 27.3229 14.8161C25.9826 14.1513 24.1002 14.107 24.1002 14.107C24.1002 14.107 30.56 10.2805 35.1737 9.92585C42.004 9.40052 49.3874 11.8425 51.6279 15.9596C47.9955 12.1244 41.8122 11.6681 38.5097 12.3105ZM33.2514 22.7095C31.3284 23.1919 28.1828 23.0407 28.1828 23.0407C28.1828 23.0407 29.385 22.2817 29.7973 20.7476C30.0035 19.9805 29.849 18.6 29.849 18.6C29.849 18.6 32.8682 16.0404 35.1737 15.0467C37.3273 14.1184 38.5888 13.5747 40.9329 13.4355C44.9719 13.1958 48.5111 13.9652 50.6761 17.2379C48.3049 14.5305 44.8402 14.4979 42.3516 15.4557C38.4983 16.9392 37.5921 21.6202 33.2514 22.7095ZM19.5623 55.0376C23.3341 56.6481 28.0638 57.7645 28.0638 57.7645C28.0638 57.7645 31.8702 60.7478 35.3718 61.8977C37.9646 62.7492 43.2179 62.1522 43.2179 62.1522C43.2179 62.1522 41.1163 61.074 40.9768 59.912C40.7777 58.2539 37.8258 57.8855 37.8258 57.8855C37.8258 57.8855 39.0327 58.5369 39.1889 59.5402C39.324 60.4089 39.9298 60.7253 39.9298 60.7253C39.9298 60.7253 38.0316 60.6824 36.8449 60.198C35.5411 59.6663 33.6647 57.5998 33.6647 57.5998C33.6647 57.5998 39.3448 56.4241 40.778 55.7932C49.0552 52.1504 53.6913 48.806 57.7391 40.095C61.8408 30.6856 61.6383 14.5707 46.4068 4.53342C42.2293 1.78038 32.5453 -2.14703 21.7487 1.43172C11.4238 4.85391 1.90755 14.4108 0 28.4874C0.659094 27.3063 8.7469 17.0508 12.6006 18.3895C14.1886 19.016 14.8692 22.5291 14.8692 22.5291C14.8692 22.5291 18.4489 18.1156 21.1825 17.2322C22.3998 16.8383 23.3325 16.9104 24.3409 17.6912C26.8257 19.6188 24.0982 22.9186 22.4595 24.1889L20.0444 25.787C20.0444 25.787 26.6561 27.8803 33.3476 26.084C36.3963 25.266 38.0192 23.9378 39.7471 22.0956C41.8092 19.8971 42.8354 17.7595 45.7272 17.6087C49.4605 17.4206 52.1458 21.1449 52.8931 25.1125C53.7694 29.766 53.6789 32.0427 51.6279 37.3111C48.442 45.4961 38.685 50.0092 33.3476 50.5778C28.0933 51.1393 26.182 50.8879 22.2134 49.7085C18.929 48.3933 16.6483 46.8881 14.2788 44.4093C13.2918 43.375 13.1416 42.9476 12.3639 41.7766C13.6532 40.9616 18.0815 37.649 22.6325 36.9638C32.4897 35.48 43.8083 42.6536 43.8083 42.6536C43.8083 42.6536 35.4442 31.6867 23.3123 31.4976C15.1072 31.3699 4.69445 39.6307 4.65489 40.2331C4.21907 40.4078 5.70757 44.2517 8.02311 46.8572C11.3471 50.5966 14.4763 52.8655 19.5623 55.0376Z" fill="white"></path> <path d="M81.2834 33.2766C80.1147 33.2766 79.0305 33.0935 78.0308 32.7274C77.0311 32.3473 76.1652 31.8122 75.433 31.1223C74.7149 30.4323 74.1517 29.6227 73.7434 28.6934C73.335 27.75 73.1309 26.7151 73.1309 25.5887C73.1309 24.4623 73.335 23.4344 73.7434 22.5051C74.1517 21.5617 74.7219 20.7451 75.4541 20.0551C76.1863 19.3652 77.0522 18.8372 78.0519 18.4711C79.0657 18.0909 80.171 17.9008 81.3679 17.9008C82.7618 17.9008 84.0079 18.1332 85.1062 18.5978C86.2045 19.0625 87.1126 19.7313 87.8307 20.6043L85.1695 23.012C84.6627 22.4629 84.1135 22.0545 83.5221 21.787C82.9449 21.5054 82.2972 21.3646 81.5791 21.3646C80.9454 21.3646 80.3681 21.4632 79.8472 21.6603C79.3262 21.8574 78.8827 22.1461 78.5166 22.5262C78.1505 22.8923 77.8618 23.3359 77.6506 23.8568C77.4535 24.3637 77.355 24.941 77.355 25.5887C77.355 26.2082 77.4535 26.7785 77.6506 27.2995C77.8618 27.8204 78.1505 28.271 78.5166 28.6512C78.8827 29.0173 79.3192 29.3059 79.8261 29.5171C80.347 29.7142 80.9173 29.8128 81.5368 29.8128C82.1564 29.8128 82.7618 29.7142 83.3532 29.5171C83.9446 29.3059 84.543 28.9539 85.1484 28.4611L87.4928 31.3968C86.648 32.0023 85.6694 32.4669 84.5571 32.7908C83.4447 33.1146 82.3535 33.2766 81.2834 33.2766ZM83.7967 30.8477V25.2719H87.4928V31.3968L83.7967 30.8477ZM96.121 33.171C94.8679 33.171 93.7555 32.9175 92.784 32.4106C91.8124 31.9037 91.0451 31.2068 90.4819 30.3197C89.9327 29.4186 89.6582 28.3907 89.6582 27.2361C89.6582 26.0815 89.9327 25.0607 90.4819 24.1736C91.0451 23.2866 91.8124 22.5966 92.784 22.1038C93.7555 21.5969 94.8679 21.3435 96.121 21.3435C97.3742 21.3435 98.4865 21.5969 99.4581 22.1038C100.444 22.5966 101.211 23.2866 101.76 24.1736C102.309 25.0607 102.584 26.0815 102.584 27.2361C102.584 28.3907 102.309 29.4186 101.76 30.3197C101.211 31.2068 100.444 31.9037 99.4581 32.4106C98.4865 32.9175 97.3742 33.171 96.121 33.171ZM96.121 29.9818C96.5857 29.9818 96.994 29.8762 97.346 29.665C97.7121 29.4538 98.0007 29.144 98.212 28.7357C98.4232 28.3133 98.5288 27.8134 98.5288 27.2361C98.5288 26.6588 98.4232 26.173 98.212 25.7788C98.0007 25.3705 97.7121 25.0607 97.346 24.8495C96.994 24.6383 96.5857 24.5327 96.121 24.5327C95.6705 24.5327 95.2621 24.6383 94.896 24.8495C94.544 25.0607 94.2554 25.3705 94.0301 25.7788C93.8189 26.173 93.7133 26.6588 93.7133 27.2361C93.7133 27.8134 93.8189 28.3133 94.0301 28.7357C94.2554 29.144 94.544 29.4538 94.896 29.665C95.2621 29.8762 95.6705 29.9818 96.121 29.9818ZM104.865 32.9809V17.3095H108.878V32.9809H104.865ZM116.893 33.171C115.851 33.171 114.901 32.9316 114.042 32.4529C113.197 31.9601 112.521 31.2772 112.014 30.4042C111.507 29.5171 111.254 28.4611 111.254 27.2361C111.254 26.0252 111.507 24.9832 112.014 24.1103C112.521 23.2232 113.197 22.5403 114.042 22.0616C114.901 21.5829 115.851 21.3435 116.893 21.3435C117.878 21.3435 118.709 21.5547 119.385 21.9771C120.075 22.3995 120.596 23.0472 120.948 23.9202C121.3 24.7932 121.476 25.8985 121.476 27.2361C121.476 28.6019 121.307 29.7213 120.969 30.5943C120.631 31.4672 120.124 32.1149 119.448 32.5374C118.773 32.9598 117.921 33.171 116.893 33.171ZM117.738 29.9818C118.188 29.9818 118.59 29.8762 118.942 29.665C119.308 29.4538 119.596 29.144 119.807 28.7357C120.019 28.3133 120.124 27.8134 120.124 27.2361C120.124 26.6588 120.019 26.173 119.807 25.7788C119.596 25.3705 119.308 25.0607 118.942 24.8495C118.59 24.6383 118.188 24.5327 117.738 24.5327C117.273 24.5327 116.858 24.6383 116.492 24.8495C116.14 25.0607 115.858 25.3705 115.647 25.7788C115.436 26.173 115.33 26.6588 115.33 27.2361C115.33 27.8134 115.436 28.3133 115.647 28.7357C115.858 29.144 116.14 29.4538 116.492 29.665C116.858 29.8762 117.273 29.9818 117.738 29.9818ZM120.251 32.9809V31.0167L120.272 27.2361L120.061 23.4555V17.3095H124.074V32.9809H120.251ZM137.723 24.6805H144.545V27.912H137.723V24.6805ZM138.019 32.9809H133.837V18.1965H145.432V21.428H138.019V32.9809ZM147.621 32.9809V21.5336H151.633V32.9809H147.621ZM149.627 20.2663C148.895 20.2663 148.303 20.0622 147.853 19.6538C147.402 19.2455 147.177 18.7386 147.177 18.1332C147.177 17.5277 147.402 17.0208 147.853 16.6125C148.303 16.2042 148.895 16 149.627 16C150.359 16 150.951 16.1971 151.401 16.5914C151.852 16.9715 152.077 17.4644 152.077 18.0698C152.077 18.7034 151.852 19.2314 151.401 19.6538C150.965 20.0622 150.373 20.2663 149.627 20.2663ZM158.824 33.171C157.853 33.171 156.902 33.0583 155.973 32.833C155.058 32.6078 154.319 32.3261 153.756 31.9882L154.959 29.2426C155.494 29.5664 156.121 29.8269 156.839 30.024C157.557 30.2071 158.261 30.2986 158.951 30.2986C159.627 30.2986 160.092 30.2282 160.345 30.0874C160.613 29.9466 160.746 29.7565 160.746 29.5171C160.746 29.2918 160.62 29.1299 160.366 29.0313C160.127 28.9187 159.803 28.8342 159.395 28.7779C159 28.7216 158.564 28.6582 158.085 28.5878C157.606 28.5174 157.121 28.4259 156.628 28.3132C156.149 28.1865 155.706 28.0035 155.297 27.7641C154.903 27.5107 154.586 27.1727 154.347 26.7503C154.108 26.3279 153.988 25.7929 153.988 25.1452C153.988 24.413 154.199 23.7653 154.621 23.2021C155.058 22.6248 155.692 22.1742 156.522 21.8504C157.353 21.5124 158.367 21.3435 159.564 21.3435C160.366 21.3435 161.176 21.428 161.993 21.5969C162.823 21.7518 163.52 21.9912 164.083 22.315L162.88 25.0396C162.316 24.7157 161.753 24.4975 161.19 24.3848C160.627 24.2581 160.092 24.1948 159.585 24.1948C158.909 24.1948 158.43 24.2722 158.149 24.4271C157.881 24.582 157.747 24.772 157.747 24.9973C157.747 25.2226 157.867 25.3986 158.106 25.5253C158.346 25.638 158.663 25.7295 159.057 25.7999C159.465 25.8562 159.909 25.9196 160.387 25.99C160.866 26.0463 161.345 26.1378 161.824 26.2646C162.316 26.3913 162.76 26.5814 163.154 26.8348C163.562 27.0742 163.886 27.4051 164.126 27.8275C164.365 28.2358 164.485 28.7638 164.485 29.4115C164.485 30.1155 164.266 30.7491 163.83 31.3124C163.408 31.8756 162.774 32.3261 161.929 32.6641C161.098 33.002 160.064 33.171 158.824 33.171ZM174.092 21.3435C174.979 21.3435 175.782 21.5265 176.5 21.8926C177.218 22.2446 177.781 22.7938 178.189 23.54C178.612 24.2863 178.823 25.2508 178.823 26.4335V32.9809H174.81V27.0883C174.81 26.2716 174.641 25.6802 174.303 25.3141C173.979 24.934 173.522 24.7439 172.93 24.7439C172.508 24.7439 172.121 24.8424 171.769 25.0396C171.417 25.2226 171.142 25.5113 170.945 25.9055C170.748 26.2998 170.649 26.8137 170.649 27.4473V32.9809H166.636V17.3095H170.649V24.7861L169.72 23.8357C170.156 23.005 170.755 22.3854 171.515 21.9771C172.276 21.5547 173.134 21.3435 174.092 21.3435ZM188.333 32.9809V17.3095H192.346V32.9809H188.333ZM195.377 32.9809V21.5336H199.39V32.9809H195.377ZM197.383 20.2663C196.651 20.2663 196.06 20.0622 195.609 19.6538C195.158 19.2455 194.933 18.7386 194.933 18.1332C194.933 17.5277 195.158 17.0208 195.609 16.6125C196.06 16.2042 196.651 16 197.383 16C198.115 16 198.707 16.1971 199.157 16.5914C199.608 16.9715 199.833 17.4644 199.833 18.0698C199.833 18.7034 199.608 19.2314 199.157 19.6538C198.721 20.0622 198.129 20.2663 197.383 20.2663ZM202.884 32.9809V21.6603C202.884 20.2804 203.293 19.1822 204.109 18.3655C204.94 17.5348 206.123 17.1194 207.658 17.1194C208.151 17.1194 208.636 17.1687 209.115 17.2672C209.594 17.3658 209.995 17.5136 210.319 17.7108L209.326 20.5409C209.157 20.4423 208.967 20.3649 208.756 20.3086C208.545 20.2382 208.334 20.203 208.122 20.203C207.7 20.203 207.369 20.3297 207.13 20.5831C206.904 20.8225 206.792 21.1956 206.792 21.7025V22.5262L206.897 24.1948V32.9809H202.884ZM201.216 24.9551V21.956H209.516V24.9551H201.216ZM217.297 33.171C215.945 33.171 214.763 32.9175 213.749 32.4106C212.749 31.8897 211.968 31.1856 211.404 30.2986C210.855 29.3974 210.581 28.3766 210.581 27.2361C210.581 26.0956 210.848 25.0818 211.383 24.1948C211.932 23.2936 212.686 22.5966 213.643 22.1038C214.601 21.5969 215.678 21.3435 216.875 21.3435C218.001 21.3435 219.029 21.5758 219.958 22.0405C220.888 22.491 221.627 23.1598 222.176 24.0469C222.725 24.934 223 26.0111 223 27.2783C223 27.4192 222.993 27.5811 222.978 27.7641C222.964 27.9472 222.95 28.1161 222.936 28.271H213.876V26.159H220.803L219.282 26.7503C219.296 26.2294 219.198 25.7788 218.987 25.3986C218.79 25.0185 218.508 24.7228 218.142 24.5116C217.79 24.3004 217.374 24.1948 216.896 24.1948C216.417 24.1948 215.995 24.3004 215.629 24.5116C215.277 24.7228 215.002 25.0255 214.805 25.4197C214.608 25.7999 214.509 26.2505 214.509 26.7715V27.3839C214.509 27.9472 214.622 28.4329 214.847 28.8413C215.086 29.2496 215.424 29.5664 215.861 29.7917C216.297 30.0029 216.818 30.1085 217.424 30.1085C217.987 30.1085 218.466 30.0311 218.86 29.8762C219.268 29.7072 219.67 29.4538 220.064 29.1158L222.176 31.3124C221.627 31.9178 220.951 32.3825 220.148 32.7063C219.346 33.0161 218.395 33.171 217.297 33.171Z" fill="white"></path> </svg> 